<?xml version="1.0" encoding="UTF-8" standalone="no"?>
<!-- Created with Inkscape (http://www.inkscape.org/) -->

<svg
   width="400"
   height="400"
   viewBox="0 0 105.83333 105.83334"
   version="1.1"
   id="svg5"
   inkscape:version="1.1.2 (b8e25be833, 2022-02-05)"
   sodipodi:docname="B.svg"
   inkscape:export-filename="C:\Users\marco\github\Optical_Fourier\patternRecon\B_dist.png"
   inkscape:export-xdpi="96"
   inkscape:export-ydpi="96"
   xmlns:inkscape="http://www.inkscape.org/namespaces/inkscape"
   xmlns:sodipodi="http://sodipodi.sourceforge.net/DTD/sodipodi-0.dtd"
   xmlns="http://www.w3.org/2000/svg"
   xmlns:svg="http://www.w3.org/2000/svg">
  <sodipodi:namedview
     id="namedview7"
     pagecolor="#ffffff"
     bordercolor="#666666"
     borderopacity="1.0"
     inkscape:pageshadow="2"
     inkscape:pageopacity="0.0"
     inkscape:pagecheckerboard="0"
     inkscape:document-units="mm"
     showgrid="false"
     units="px"
     inkscape:zoom="1.4805976"
     inkscape:cx="111.77919"
     inkscape:cy="203.29628"
     inkscape:window-width="1920"
     inkscape:window-height="1017"
     inkscape:window-x="-8"
     inkscape:window-y="-8"
     inkscape:window-maximized="1"
     inkscape:current-layer="layer1" />
  <defs
     id="defs2">
    <rect
       x="7.4294323"
       y="10.806447"
       width="366.7438"
       height="372.82242"
       id="rect2300" />
  </defs>
  <g
     inkscape:label="Layer 1"
     inkscape:groupmode="layer"
     id="layer1">
    <rect
       style="fill:#ffffff;stroke:#000000;stroke-width:0.1"
       id="rect9195"
       width="105.83334"
       height="105.83334"
       x="0"
       y="3.5527137e-15" />
    <text
       xml:space="preserve"
       transform="matrix(0.43060018,0,0,0.42401104,-30.722791,-19.896388)"
       id="text2298"
       style="font-size:293.333px;line-height:1.25;font-family:Consolas;-inkscape-font-specification:Consolas;white-space:pre;shape-inside:url(#rect2300);stroke-width:0.61921"
       x="32.402344"
       y="0"><tspan
         x="110.16383"
         y="265.32459"
         id="tspan9742"><tspan
           style="text-align:center;text-anchor:middle"
           id="tspan9740">B</tspan></tspan></text>
    <path
       sodipodi:type="spiral"
       style="fill:none;fill-rule:evenodd;stroke:#000000;stroke-width:0.466984"
       id="path9369"
       sodipodi:cx="202.62088"
       sodipodi:cy="18.911282"
       sodipodi:expansion="1"
       sodipodi:revolution="3"
       sodipodi:radius="101.66553"
       sodipodi:argument="-16.025513"
       sodipodi:t0="0"
       d="m 202.62088,18.911282 c -4.8425,1.591593 -4.53455,-5.742355 -2.64533,-8.04855 5.11967,-6.2496475 14.70796,-2.8255539 18.74243,2.757885 7.21672,9.987462 1.73327,23.683416 -8.1611,29.436315 -14.5204,8.442609 -32.8029,0.670253 -40.1302,-13.564321 -9.76613,-18.972449 0.3766,-41.976433 18.96754,-50.82408 23.3948,-11.13386 51.17644,1.414335 61.51796,24.3707565 12.52497,27.8033025 -2.44666,60.3914955 -29.77397,72.2118445 -32.2043,13.929872 -69.61596,-3.475553 -82.90573,-35.177192 -15.34356,-36.6007957 4.50217,-78.846704 40.58041,-93.599609 40.99439,-16.763188 88.08185,5.527195 104.29349,45.9836271 C 301.29339,37.843961 276.55531,89.778163 231.71954,107.44533 181.94333,127.05924 125.15857,99.871241 106.03828,50.65527"
       transform="matrix(0.57008721,0,0,0.56309148,-61.523265,37.313442)" />
    <path
       style="fill:none;stroke:#000000;stroke-width:0.264583px;stroke-linecap:butt;stroke-linejoin:miter;stroke-opacity:1"
       d="m 9.4711191,5.8971118 c -0.087336,4.4055492 0.1206748,8.8191912 0,13.2238272 -0.073484,2.682145 -0.2849097,5.359343 -0.3574008,8.041516 -0.3475021,12.857581 0.4053226,25.750769 -0.1787004,38.599277 -0.2295469,5.05003 0.296821,10.143574 0,15.18953 -0.059874,1.01786 -0.2847559,2.02088 -0.3574007,3.037906 -0.1599229,2.23892 0,4.545341 0,6.790613 0,1.758419 -0.1596827,3.604501 0,5.361012 0.3009199,3.310117 0.00276,0.01381 0.3574007,1.787003 0.1096947,0.548474 0,1.239587 0,1.787004"
       id="path9550" />
    <path
       style="fill:none;stroke:#000000;stroke-width:0.264583px;stroke-linecap:butt;stroke-linejoin:miter;stroke-opacity:1"
       d="m 19.120939,3.7527076 c 0.119133,2.0848375 0.207498,4.1716613 0.3574,6.2545124 0.981886,13.643042 2.35841,27.26094 3.037906,40.922383 0.02111,0.424442 0.513223,30.629463 0.357401,38.420576 -0.04532,2.266218 -0.131859,4.535192 -0.357401,6.790614 -0.07331,0.733144 -0.378649,1.424625 -0.536101,2.144405 -0.349533,1.597864 -0.525711,3.231152 -0.893502,4.824912 -0.152717,0.66177 -0.268564,1.34145 -0.536101,1.9657 -0.805067,1.87849 -0.100419,-0.82708 -0.3574,0.7148 -0.117333,0.704 -0.417369,1.07221 -0.357401,1.07221 0.01157,0 0.1787,-1.24282 0.1787,-1.60831"
       id="path9552" />
    <path
       style="fill:none;stroke:#000000;stroke-width:0.264583px;stroke-linecap:butt;stroke-linejoin:miter;stroke-opacity:1"
       d="m 35.918772,2.501805 c 0.238268,5.5397111 0.614307,11.075211 0.714801,16.619134 0.25695,14.175066 0.135213,28.355031 0.357402,42.530684 0.07567,4.827627 0.462396,9.647076 0.536101,14.474729 0.06002,3.931402 -0.519316,7.877146 -0.178702,11.794226 0.0815,0.937246 0.48296,1.902637 0.536101,2.859203 0.226423,4.075584 0,8.238133 0,12.330329"
       id="path9554" />
    <path
       style="fill:none;stroke:#000000;stroke-width:0.264583px;stroke-linecap:butt;stroke-linejoin:miter;stroke-opacity:1"
       d="M 53.431408,2.6805054 C 52.445769,23.490993 54.6511,43.247264 56.111912,63.796028 c 0.16029,2.254745 1.137624,14.229749 0.893503,19.478339 -0.159835,3.436416 -0.411607,2.951538 -1.072203,6.254512 -0.201102,1.005512 -0.253669,2.179302 -0.357402,3.216608 -0.06408,0.640819 0.105818,1.33081 0,1.965704 -0.235209,1.411261 -0.178699,-0.321686 -0.178699,1.072203 0,1.042722 0.25105,2.927212 0,3.931406 -0.160689,0.64276 -0.357399,1.27678 -0.357399,1.9657"
       id="path9556" />
    <path
       style="fill:none;stroke:#000000;stroke-width:0.264583px;stroke-linecap:butt;stroke-linejoin:miter;stroke-opacity:1"
       d="m 66.476533,1.0722021 c 0,0.297834 -0.05759,0.6012887 0,0.8935018 5.372539,27.2606571 5.489715,18.8483951 5.361011,45.7472911 -0.02426,5.068723 -0.166336,10.150511 -0.714801,15.18953 -0.40703,3.739594 -1.464011,7.37979 -2.144406,11.079424 -0.272777,1.483236 -0.426947,2.987125 -0.714801,4.467508 -0.468175,2.407759 -1.361847,4.683469 -1.608301,7.148015 -0.117922,1.179201 0.08446,2.391484 0,3.574008 -0.326803,4.575217 -0.357402,9.164674 -0.357402,13.75993"
       id="path9558" />
    <path
       style="fill:none;stroke:#000000;stroke-width:0.264583px;stroke-linecap:butt;stroke-linejoin:miter;stroke-opacity:1"
       d="m 82.916965,3.5740072 c -0.05957,1.3700361 -0.178699,2.7387778 -0.178699,4.1101081 0,42.5258497 1.141277,33.1286887 -1.429602,68.7996387 -0.301236,4.179631 -0.768911,8.346366 -1.250902,12.509024 -0.382556,3.303889 -1.04371,6.513409 -1.250903,9.828522 -0.08448,1.35174 0.536102,2.43841 0.536102,3.75271"
       id="path9560" />
    <path
       style="fill:none;stroke:#000000;stroke-width:0.264583px;stroke-linecap:butt;stroke-linejoin:miter;stroke-opacity:1"
       d="m 94.532491,7.8628157 c 0.01371,17.0360803 -0.05055,34.0722773 0,51.1083023 0.01979,6.671718 -0.27052,13.357836 0.1787,20.014441 0.208441,3.08873 1.258289,6.063445 1.787003,9.113718 0.246058,1.419561 0.405662,2.853997 0.536102,4.288809 0.126831,1.395137 0.193479,4.542758 0,5.897112 -0.16896,1.182709 -0.536102,2.188892 -0.536102,3.395302"
       id="path9562" />
  </g>
</svg>
